# xmcd
#
# Track frame offsets: 
#        150
#        12835
#        26930
#        43697
#        60410
#        78572
#        99462
#        117050
#        135007
#        168042
#        178607
#        198220
#        216010
#        232735
#        251657
#        270697
#        287787
#        307397
#        318232
#        332752
#
# Disc length: 4666 seconds
#
# Revision: 0
# Processed by: cddbd v1.4PL0 Copyright (c) Steve Scherf et al.
# Submitted via: ExactAudioCopy v0.90b4
#
DISCID=0d123814
DTITLE=Albert King - Blues for you: The best of
DYEAR=1900
DGENRE=
TTITLE0=Born under a bad sign
TTITLE1=Killing floor
TTITLE2=Breaking up somebody's home
TTITLE3=Can't you see what you're doing to me
TTITLE4=Going back to the laundromat blues
TTITLE5=Answer to the laundromat blues
TTITLE6=That's what the blues is all about
TTITLE7='Phone booth
TTITLE8=I'll play the blues for uou (p 1 and 2)
TTITLE9=Left hand woman (get right with me)
TTITLE10=Flat tire
TTITLE11=Drowning on dry land (p 1)
TTITLE12=The pinch paid off (p 1)
TTITLE13=The sky is crying
TTITLE14=Driving wheel
TTITLE15=Everybody wants to go to heaven
TTITLE16=Angel of mercy
TTITLE17=Wrapped up in love again
TTITLE18=Blues power
TTITLE19=Crosscut saw
EXTD=
EXTT0=
EXTT1=
EXTT2=
EXTT3=
EXTT4=
EXTT5=
EXTT6=
EXTT7=
EXTT8=
EXTT9=
EXTT10=
EXTT11=
EXTT12=
EXTT13=
EXTT14=
EXTT15=
EXTT16=
EXTT17=
EXTT18=
EXTT19=
PLAYORDER=
